<svg xmlns="http://www.w3.org/2000/svg" width="64" height="64" viewBox="0 0 64 64">
  <defs>
    <linearGradient id="bg" x1="0" y1="0" x2="0" y2="1">
      <stop offset="0" stop-color="#2C8ED6"/>
      <stop offset="1" stop-color="#114A83"/>
    </linearGradient>
  </defs>
  <rect x="4" y="4" width="56" height="56" rx="14" fill="url(#bg)"/>
  <g transform="translate(10 10) scale(1.8333333)" fill="#EEF8FF">
    <path d="M12 2c5.523 0 10 4.477 10 10a9.985 9.985 0 0 1-3.999 8H20a1 1 0 1 1 0 2h-8C6.477 22 2 17.523 2 12S6.477 2 12 2Zm0 12a2 2 0 1 0 0 4a2 2 0 0 0 0-4Zm-4-4a2 2 0 1 0 0 4a2 2 0 0 0 0-4Zm8 0a2 2 0 1 0 0 4a2 2 0 0 0 0-4Zm-4-4a2 2 0 1 0 0 4a2 2 0 0 0 0-4Z"/>
  </g>
</svg>
